<svg viewBox="0 0 250 100" xmlns="http://www.w3.org/2000/svg" data-name="Layer 1" id="Layer_1">
  <defs>
    <style>
      .cls-1 {
        fill-rule: evenodd;
      }

      .cls-1, .cls-2 {
        fill: #231f20;
      }
    </style>
  </defs>
  <path d="M228.72,87.66h3.13v.09c0,1.48.43,2.71,1.28,3.68.85.97,1.9,1.46,3.16,1.46s2.18-.38,2.98-1.12c.79-.75,1.19-1.7,1.19-2.83s-.31-2.05-.94-2.74c-.63-.69-1.76-1.34-3.41-1.95-2.63-.94-4.36-1.9-5.16-2.87-.8-.98-1.21-2.29-1.21-3.94,0-1.86.67-3.44,2.02-4.73,1.34-1.3,2.98-1.95,4.89-1.95,2.04,0,3.64.58,4.84,1.73,1.19,1.16,1.84,2.77,1.93,4.82h-3.26c-.07-1.13-.43-2-1.07-2.62-.64-.62-1.52-.93-2.63-.93-1,0-1.82.33-2.49,1-.66.67-1,1.5-1,2.5,0,.71.14,1.3.41,1.79.27.48.72.91,1.36,1.31.58.36,1.42.71,2.52,1.04,1.1.33,1.84.58,2.21.73,1.48.63,2.57,1.48,3.28,2.53.7,1.05,1.05,2.39,1.05,4.02,0,2.04-.72,3.74-2.14,5.08-1.42,1.34-3.24,2.01-5.42,2.01s-4.03-.73-5.38-2.19c-1.36-1.47-2.07-3.44-2.14-5.91" class="cls-1"></path>
  <path d="M207.69,75.09c.97-1.37,2.17-2.41,3.6-3.13,1.43-.72,3.04-1.07,4.81-1.07,3.23,0,5.58.97,7.04,2.91,1.47,1.94,2.21,5.05,2.21,9.35v11.99h-2.92v-12.62c0-3.13-.52-5.37-1.56-6.71-1.03-1.33-2.73-2-5.07-2-1.36,0-2.54.28-3.58.83-1.03.55-1.84,1.35-2.45,2.38-.36.65-.62,1.39-.78,2.22-.15.83-.24,2.27-.24,4.33v11.56h-2.88v-13.31c0-2.74-.55-4.76-1.67-6.06-1.11-1.31-2.81-1.95-5.1-1.95-1.39,0-2.6.28-3.64.83-1.04.55-1.87,1.35-2.47,2.38-.38.65-.64,1.39-.79,2.22-.15.83-.23,2.27-.23,4.33v11.56h-3v-23.77h3v2.71c.91-1.05,1.98-1.84,3.21-2.37,1.23-.54,2.63-.8,4.18-.8,1.8,0,3.45.38,4.93,1.14,1.48.76,2.62,1.78,3.39,3.06" class="cls-1"></path>
  <path d="M181.01,95.14h-3.09v-23.77h2.88v2.74c.74-1.05,1.56-1.82,2.45-2.32.89-.49,1.93-.75,3.11-.77l.02,3.3c-1.92.17-3.29.74-4.12,1.72-.83.97-1.25,2.55-1.25,4.74v14.35Z" class="cls-1"></path>
  <path d="M170.72,74.26c-2.43-2.43-5.36-3.65-8.8-3.65s-6.11,1.24-8.49,3.72c-2.39,2.48-3.58,5.46-3.58,8.95s1.19,6.38,3.58,8.84c2.38,2.46,5.3,3.69,8.74,3.69s6.26-1.25,8.65-3.76c2.37-2.51,3.56-5.53,3.56-9.07s-1.22-6.27-3.64-8.71ZM168.58,90.11c-1.73,1.85-3.87,2.77-6.42,2.77s-4.76-.92-6.51-2.77c-1.74-1.85-2.61-4.15-2.61-6.89s.87-5.03,2.61-6.89c1.73-1.86,3.81-2.79,6.23-2.79,2.69,0,4.91.91,6.66,2.72,1.75,1.8,2.63,4.11,2.63,6.92s-.87,5.08-2.59,6.93Z" class="cls-1"></path>
  <path d="M143.21,95.14h-2.96v-21.12h-3.18v-2.66h3.05v-.65c0-2.52.64-4.38,1.92-5.59,1.27-1.21,3.23-1.81,5.86-1.81h.28v2.74c-1.83.03-3.12.39-3.88,1.09-.76.69-1.14,1.89-1.14,3.57v.65h5.02v2.66h-4.97v21.12Z" class="cls-1"></path>
  <rect height="23.77" width="3.05" y="71.36" x="131" class="cls-2"></rect>
  <rect height="4.9" width="3.05" y="63.67" x="131" class="cls-2"></rect>
  <path d="M106.26,71.36h2.96v2.71c.94-1.08,2.02-1.88,3.25-2.4,1.23-.52,2.64-.78,4.23-.78,1.74,0,3.29.32,4.65.97,1.36.65,2.44,1.58,3.23,2.79.55.85.94,1.84,1.18,2.99.24,1.14.35,2.83.35,5.07v12.42h-3v-13.31c0-2.81-.54-4.85-1.61-6.11-1.08-1.27-2.8-1.9-5.16-1.9-1.39,0-2.6.28-3.64.83-1.04.55-1.87,1.35-2.47,2.38-.38.65-.64,1.39-.79,2.22-.15.83-.23,2.27-.23,4.33v11.56h-2.96v-23.77Z" class="cls-1"></path>
  <path d="M81.47,71.36h3v12.62c0,3.24.52,5.53,1.58,6.88,1.05,1.35,2.78,2.02,5.19,2.02,1.37,0,2.57-.28,3.61-.83,1.04-.55,1.87-1.36,2.51-2.4.36-.62.62-1.36.78-2.2.15-.84.24-2.31.24-4.4v-11.69h3.05v23.77h-3.05v-2.57c-.92,1.13-1.95,1.94-3.09,2.44-1.14.51-2.52.76-4.13.76-3.42,0-5.89-.93-7.41-2.78-1.51-1.85-2.27-4.92-2.27-9.21v-12.41Z" class="cls-1"></path>
  <path d="M63.51,4.21l24.23.02-20,35.65c-3.49,6.24-8.75,11.98-14.99,15.56-5.56,3.19-11.69,4.45-18.05,4.82-6.45.38-13.29-.19-18.48-1.61-7.77-2.13-12.81-7.33-8.36-19.31h20.21c-1.29,2.15-1.34,3.72-.08,4.77,2.22,1.86,5.65,1.51,8.04.26,3.36-1.77,7.09-5.32,9.89-10.17L63.51,4.21Z" class="cls-1"></path>
  <path d="M93.53,4.21l-11.04,20.29,6.83,15.17h-15.4c-2.95,5.4-6.44,10.52-8.92,12.48l2.09.03h27.16l3.03,8.34h27.3L93.53,4.21Z" class="cls-1"></path>
</svg>